<svg width="41" height="38" viewBox="0 0 41 38" fill="none" xmlns="http://www.w3.org/2000/svg">
<rect width="41" height="38" rx="12" fill="#262626"/>
<path opacity="0.6" fill-rule="evenodd" clip-rule="evenodd" d="M18.0156 22.5896C19.4196 23.7113 21.1999 24.253 22.9907 24.1032C24.7816 23.9534 26.4471 23.1235 27.6453 21.7841C28.8434 20.4446 29.4832 18.6972 29.4332 16.9008C29.3832 15.1044 28.6472 13.3953 27.3765 12.1245C26.1057 10.8538 24.3966 10.1178 22.6002 10.0678C20.8038 10.0179 19.0564 10.6576 17.717 11.8558C16.3775 13.0539 15.5477 14.7194 15.3979 16.5103C15.2481 18.3011 15.7897 20.0814 16.9115 21.4854L11.5406 26.8552C11.4639 26.9267 11.4023 27.013 11.3596 27.1088C11.3169 27.2046 11.2939 27.3081 11.2921 27.413C11.2902 27.5179 11.3095 27.6221 11.3488 27.7193C11.3881 27.8166 11.4466 27.905 11.5208 27.9792C11.595 28.0534 11.6834 28.1119 11.7806 28.1511C11.8779 28.1904 11.9821 28.2097 12.087 28.2079C12.1919 28.206 12.2954 28.1831 12.3912 28.1404C12.487 28.0977 12.5733 28.0361 12.6448 27.9594L18.0156 22.5896ZM26.2719 20.9625C27.0364 20.1979 27.5571 19.2238 27.7682 18.1633C27.9793 17.1028 27.8713 16.0036 27.4578 15.0045C27.0443 14.0054 26.344 13.1512 25.4452 12.5501C24.5464 11.9489 23.4896 11.6277 22.4084 11.6269C21.3271 11.6262 20.2699 11.946 19.3703 12.546C18.4707 13.146 17.7692 13.9991 17.3544 14.9977C16.9396 15.9962 16.8301 17.0953 17.0397 18.1561C17.2494 19.2168 17.7688 20.1916 18.5323 20.9573L18.5375 20.9625L18.5427 20.9666C19.5687 21.9902 20.9589 22.5647 22.4082 22.5639C23.8574 22.5631 25.247 21.9871 26.2719 20.9625Z" fill="white"/>
</svg>
